<?xml version="1.0" encoding="utf-8"?>
<!-- Generator: Adobe Illustrator 25.1.0, SVG Export Plug-In . SVG Version: 6.00 Build 0)  -->
<svg version="1.1" id="图层_1" xmlns="http://www.w3.org/2000/svg" xmlns:xlink="http://www.w3.org/1999/xlink" x="0px" y="0px"
	 width="242px" height="42px" viewBox="0 0 242 42" style="enable-background:new 0 0 242 42;" xml:space="preserve">
<style type="text/css">
	.st0{fill-rule:evenodd;clip-rule:evenodd;fill:#2386EE;}
	.st1{enable-background:new    ;}
	.st2{fill:#2386EE;}
	.st3{filter:url(#Adobe_OpacityMaskFilter);}
	.st4{fill-rule:evenodd;clip-rule:evenodd;fill:#FFFFFF;}
	.st5{mask:url(#mask-2_1_);fill-rule:evenodd;clip-rule:evenodd;fill:#00CCFE;}
	.st6{fill-rule:evenodd;clip-rule:evenodd;fill:#05C8C8;}
	.st7{filter:url(#Adobe_OpacityMaskFilter_1_);}
	.st8{mask:url(#mask-4_1_);fill-rule:evenodd;clip-rule:evenodd;fill:#A06EFF;}
</style>
<g id="金蝶云苍穹">
	<g id="编组-25备份">
		<rect id="矩形复制-13" x="147" y="10" class="st0" width="1" height="22"/>
		<g class="st1">
			<path class="st2" d="M159.39,14.31v-1.06h14.48v1.06h-3.25v5.05h3.98v1.06h-3.98v7.44h-1.2v-7.44h-5.38
				c0.18,3.54-1.26,6.06-4.32,7.57c-0.27-0.31-0.53-0.64-0.8-1c2.79-1.28,4.09-3.47,3.92-6.57h-4.18v-1.06h4.18v-5.05H159.39z
				 M164.04,14.31v5.05h5.38v-5.05H164.04z"/>
			<path class="st2" d="M176.2,16.77v-1.2c0.53-1.06,0.93-2.04,1.2-2.92l1.13,0.27c-0.09,0.22-0.22,0.53-0.4,0.93
				c-0.36,0.89-0.62,1.51-0.8,1.86h3.79c0.27-1.11,0.51-2.32,0.73-3.65l1.2,0.13c-0.04,0.27-0.13,0.64-0.27,1.13
				c-0.18,1.06-0.36,1.86-0.53,2.39h9.16v1.06h-9.43c-0.18,0.75-0.42,1.53-0.73,2.32h8.3v0.93c-0.8,1.9-1.97,3.5-3.52,4.78
				c1.24,0.8,3.01,1.42,5.31,1.86c-0.18,0.27-0.38,0.64-0.6,1.13c-2.48-0.71-4.38-1.48-5.71-2.32c-1.24,0.71-3.28,1.55-6.11,2.52
				c-0.18-0.4-0.4-0.78-0.66-1.13c2.52-0.58,4.47-1.26,5.84-2.06c-1.42-1.2-2.5-2.77-3.25-4.71c-1.11,2.66-2.7,5-4.78,7.04
				c-0.27-0.44-0.51-0.78-0.73-1c2.66-2.52,4.49-5.64,5.51-9.36H176.2z M188.28,20.02h-6.31c0.71,1.68,1.75,3.05,3.12,4.12
				C186.6,22.99,187.66,21.62,188.28,20.02z M188.55,15.11c-0.58-0.49-1.35-1.11-2.32-1.86c-0.13-0.13-0.24-0.22-0.33-0.27
				l0.66-0.73c0.93,0.66,1.86,1.33,2.79,1.99L188.55,15.11z"/>
			<path class="st2" d="M194.26,15.04v-0.93h4.58v-2.06h1.13v2.06h3.98v0.93h-3.98v2.26h2.06c1.59-1.2,3.05-2.54,4.38-4.05l0.86,0.6
				c-1.15,1.33-2.32,2.48-3.52,3.45h4.71v1h-6.04c-1.02,0.71-2.12,1.39-3.32,2.06h6.77v7.57h-1.06V27h-8.04v0.93h-1.06v-5.98
				c-0.93,0.4-1.88,0.78-2.86,1.13c-0.04-0.13-0.11-0.31-0.2-0.53c-0.13-0.27-0.22-0.44-0.27-0.53c3.1-0.97,5.84-2.21,8.23-3.72
				h-7.97v-1h6.18v-2.26H194.26z M197.25,21.29l-0.46,0.2v1.79h8.04v-1.99H197.25z M196.78,24.14v1.93h8.04v-1.93H196.78z"/>
			<path class="st2" d="M209.8,22.75c-0.04-0.13-0.11-0.35-0.2-0.66c-0.09-0.22-0.16-0.38-0.2-0.46c1.9-1.33,3.39-3.03,4.45-5.11
				h-4.05v-1.06h5.18v1.13c-0.53,1.02-1.13,1.99-1.79,2.92v8.37h-1.06v-7.17C211.5,21.4,210.73,22.08,209.8,22.75z M212.65,15.18
				c-0.44-1.11-0.82-1.99-1.13-2.66l1-0.4c0.04,0.13,0.13,0.33,0.27,0.6c0.44,0.97,0.75,1.66,0.93,2.06L212.65,15.18z M215.57,22.75
				c-0.31-0.4-0.91-1.08-1.79-2.06c-0.04-0.04-0.09-0.09-0.13-0.13l0.73-0.6c0.35,0.31,0.86,0.8,1.53,1.46
				c0.27,0.31,0.44,0.51,0.53,0.6L215.57,22.75z M215.77,18.1v-1h3.85v-4.91h1.13v4.91h4.12v1h-4.12v8.1h4.65v1.13h-10.36V26.2h4.58
				v-8.1H215.77z"/>
			<path class="st2" d="M227.79,27V13.18h13.88v1.06h-12.82V26h13.08v1H227.79z M239.61,24.87c-1.33-1.33-2.68-2.66-4.05-3.98
				c-1.46,1.46-3.03,2.86-4.71,4.18c-0.36-0.49-0.64-0.8-0.86-0.93c1.64-1.15,3.23-2.48,4.78-3.98c-1.11-1.11-2.5-2.41-4.18-3.92
				l0.8-0.73c0.57,0.53,1.5,1.37,2.79,2.52c0.62,0.58,1.08,1,1.39,1.26c1.2-1.28,2.3-2.63,3.32-4.05l1,0.6
				c-1.06,1.46-2.24,2.88-3.52,4.25c1.5,1.33,2.92,2.63,4.25,3.92L239.61,24.87z"/>
		</g>
		<g id="编组">
			<path id="Fill-1" class="st0" d="M77.94,18.27c-0.15,0-0.27,0.11-0.3,0.25l-0.29,1.57h6.37l-5.99,6.41
				c-0.21,0.22-0.32,0.5-0.32,0.8c0.01,0.62,0.52,1.13,1.14,1.13h13.76c0.62,0,1.11-0.51,1.1-1.13c0-0.22-0.07-0.43-0.19-0.62
				l-0.09-0.13l0,0l-2.27-3.51h-2.5l2.31,3.57H80.36l6.1-6.52h8.85c0.15,0,0.27-0.11,0.3-0.25l0.29-1.57H77.94z M57.49,20.01h-1.12
				l0.8-4.42h1.12L57.49,20.01z M59.06,20.01l0.8-4.42h1.13l-0.65,3.57c-0.08,0.5-0.49,0.86-0.99,0.86h-0.33H59.06z M69.24,21.01
				h-1.96c-0.15,0-0.27,0.11-0.3,0.25l-0.16,0.85h-4.61c-0.15,0-0.27,0.11-0.3,0.25l-0.28,1.53h3.75c-1.07,0.97-2.47,1.86-4.14,2.64
				c-0.02-0.2-0.11-0.96-0.19-1.7c-0.03-0.28-0.07-0.56-0.09-0.81h0c-0.05-0.46-0.1-0.84-0.11-0.98l-0.3,0.03h0l-0.78,0.08
				c-0.08,0.01-0.16,0.05-0.21,0.11c-0.05,0.07-0.08,0.15-0.07,0.23l0.19,1.72l-1.25,0.12l0.6-3.3h0.89c0.84,0,1.55-0.6,1.7-1.43
				l1.28-7.03h-2.33l0.53-2.95h-2.05c-0.15,0-0.27,0.11-0.3,0.25l-0.49,2.7h-1.92c-0.15,0-0.27,0.11-0.3,0.25l-1.49,8.21h2.17
				l-0.64,3.53l-2.58,0.25c-0.14,0.01-0.25,0.12-0.27,0.25l-0.3,1.64l6.95-0.67l0.24,2.06c0.12-0.05,0.24-0.11,0.36-0.17
				c0.01,0,0.01,0,0.02-0.01c0.08-0.04,0.17-0.08,0.25-0.12c0.12-0.06,0.24-0.11,0.35-0.17c0.18-0.09,0.36-0.19,0.55-0.28
				c0.04-0.02,0.08-0.04,0.12-0.06v0c1.78-0.97,3.42-2.15,4.52-3.3l-0.75,4.11h1.96c0.15,0,0.27-0.11,0.3-0.25l0.71-3.86
				c0.65,1.24,1.9,2.4,3.7,3.44c0.05,0.03,0.1,0.04,0.15,0.04c0.09,0,0.18-0.04,0.24-0.12c0.09-0.12,0.2-0.24,0.29-0.35
				c0.12-0.14,0.23-0.27,0.35-0.4c0.06-0.07,0.12-0.13,0.18-0.19c0.16-0.16,0.33-0.32,0.5-0.47c-0.2-0.07-0.39-0.16-0.58-0.24
				c-0.01,0-0.02-0.01-0.02-0.01c-0.18-0.08-0.36-0.16-0.53-0.25v0c-1.34-0.67-2.38-1.52-3.09-2.53h4c0.15,0,0.27-0.11,0.3-0.25
				l0.27-1.53h-5.26L69.24,21.01z M71.66,15.76c-0.1,0.49-0.53,0.85-1.03,0.85h-1.1l0.35-1.96h1.97L71.66,15.76z M74.63,10.62h-1.79
				c-0.15,0-0.27,0.11-0.3,0.25l-0.36,2h-1.97l0.41-2.25h-1.78c-0.15,0-0.28,0.11-0.3,0.25l-0.36,2h-1.49l0.32-1.79h-1.86
				c-0.15,0-0.27,0.11-0.3,0.25l-0.28,1.54h-0.79c-0.15,0-0.27,0.11-0.3,0.25l-0.28,1.53h1.05l-1.08,5.98H73.7
				c0.15,0,0.27-0.11,0.3-0.25l0.26-1.46h-8.68l0.78-4.27h1.5L67.24,18h4.79c0.72,0,1.35-0.52,1.48-1.23l0.39-2.12h1.62
				c0.15,0,0.27-0.11,0.3-0.25l0.28-1.53h-1.88L74.63,10.62z M80.86,14.73h12.75h1.02c0.16,0,0.29-0.11,0.32-0.27l0.31-1.68H80.6
				c-0.16,0-0.29,0.11-0.32,0.27l-0.31,1.68H80.86z M37.49,16.59c1.98-0.95,3.92-2.21,5.78-3.77c1.21,1.6,2.62,2.86,4.18,3.77H37.49
				z M52.19,16.13c-0.18-0.06-0.35-0.12-0.53-0.18c-2.32-0.86-4.45-2.49-6.5-4.97c-0.06-0.07-0.14-0.11-0.24-0.11h-2.99
				c-0.08,0-0.15,0.03-0.2,0.08c-2.94,2.64-5.96,4.44-9.22,5.49c-0.12,0.04-0.21,0.15-0.21,0.29c-0.02,0.7-0.09,1.89-0.11,2.07
				c0.32-0.13,0.75-0.3,1.22-0.48c0.96-0.39,1.99-0.8,2.51-1.02l-0.23,1.32h4.98l-0.34,1.86h-6.38c-0.15,0-0.28,0.11-0.3,0.26
				l-0.31,1.77h6.62l-0.75,4.11h-0.77c-0.74-1.18-1.14-1.77-1.49-2.25h0c-0.02-0.02-0.03-0.04-0.05-0.07
				c-0.03-0.04-0.06-0.08-0.09-0.13c-0.09-0.12-0.18-0.23-0.27-0.35c-0.37-0.47-0.67-0.86-0.66-0.8l-1.75,0.92
				c-0.08,0.04-0.14,0.12-0.16,0.2c-0.02,0.09,0,0.18,0.05,0.26c0.1,0.13,0.22,0.31,0.37,0.51c0.2,0.27,0.42,0.59,0.67,0.93
				c0.13,0.17,0.24,0.33,0.51,0.78h-4.26c-0.15,0-0.27,0.11-0.3,0.25l-0.29,1.61H50c0.15,0,0.27-0.11,0.3-0.25l0.29-1.6h-4.36
				c0.51-0.28,1.06-0.74,1.61-1.34v0c0.03-0.03,0.06-0.06,0.08-0.09c0.06-0.06,0.12-0.13,0.17-0.2c0.06-0.07,0.11-0.13,0.17-0.2
				c0.04-0.04,0.07-0.09,0.11-0.13c0.09-0.11,0.17-0.21,0.24-0.31l0.02-0.02l0,0c0.08-0.11,0.16-0.22,0.21-0.29l-1.62-0.87
				c-0.05-0.02-0.1-0.04-0.14-0.04c-0.1,0-0.19,0.05-0.25,0.13c-0.59,0.83-2.42,2.74-4.35,3.36h-0.55l0.75-4.11h6.42
				c0.15,0,0.27-0.11,0.3-0.25l0.32-1.77h-6.68l0.34-1.86h4.63c0.15,0,0.27-0.11,0.3-0.25l0.21-1.15c0.17,0.05,0.4,0.15,0.7,0.31
				c0.01,0,0.02,0.01,0.03,0.01c0.73,0.28,1.26,0.48,1.69,0.62c0.03,0.01,0.06,0.02,0.1,0.02c0.09,0,0.19-0.05,0.25-0.13
				c0.16-0.22,1.15-1.31,1.5-1.74c-0.19-0.05-0.37-0.1-0.56-0.16C52.21,16.14,52.2,16.14,52.19,16.13L52.19,16.13z"/>
			<g transform="translate(0.000000, 13.076790)">
				<defs>
					<filter id="Adobe_OpacityMaskFilter" filterUnits="userSpaceOnUse" x="0" y="0" width="8.35" height="8.44">
						<feColorMatrix  type="matrix" values="1 0 0 0 0  0 1 0 0 0  0 0 1 0 0  0 0 0 1 0"/>
					</filter>
				</defs>
				<mask maskUnits="userSpaceOnUse" x="0" y="0" width="8.35" height="8.44" id="mask-2_1_">
					<g class="st3">
						<polygon id="path-1_1_" class="st4" points="0,0 8.35,0 8.35,8.44 0,8.44 						"/>
					</g>
				</mask>
				<path id="Fill-3" class="st5" d="M8.35,4.22c0,2.33-1.87,4.22-4.18,4.22C1.87,8.44,0,6.55,0,4.22S1.87,0,4.18,0
					C6.48,0,8.35,1.89,8.35,4.22"/>
			</g>
			<path id="Fill-5" class="st6" d="M19.75,28.24c0,2.64-2.12,4.78-4.74,4.78c-2.61,0-4.73-2.14-4.73-4.78s2.12-4.78,4.73-4.78
				C17.63,23.46,19.75,25.6,19.75,28.24"/>
			<path id="Fill-7" class="st0" d="M14.99,0c3.46,0,6.27,2.86,6.27,6.38s-2.8,6.38-6.27,6.38S8.72,9.91,8.72,6.38S11.52,0,14.99,0"
				/>
			<g transform="translate(23.073493, 36.376294)">
				<defs>
					<filter id="Adobe_OpacityMaskFilter_1_" filterUnits="userSpaceOnUse" x="0" y="0" width="5.57" height="5.62">
						<feColorMatrix  type="matrix" values="1 0 0 0 0  0 1 0 0 0  0 0 1 0 0  0 0 0 1 0"/>
					</filter>
				</defs>
				<mask maskUnits="userSpaceOnUse" x="0" y="0" width="5.57" height="5.62" id="mask-4_1_">
					<g class="st7">
						<polygon id="path-3_1_" class="st4" points="0,0 5.57,0 5.57,5.62 0,5.62 						"/>
					</g>
				</mask>
				<path id="Fill-9" class="st8" d="M5.57,2.81c0,1.55-1.25,2.81-2.78,2.81C1.25,5.62,0,4.36,0,2.81C0,1.26,1.25,0,2.78,0
					C4.32,0,5.57,1.26,5.57,2.81"/>
			</g>
			<path id="Fill-11" class="st0" d="M104.38,28.61c-1.85,0.05-2.59-0.76-2.24-2.42l0.84-4.54c0.12-0.64,0.67-1.11,1.32-1.11h8.38
				c0.34,0,0.6,0.32,0.52,0.66c-0.17,0.74-0.37,1.47-0.54,2.19c-0.34,1.45-1.3,2.2-3.09,2.2h-2.83l0.16-0.88
				c0.02-0.13,0.14-0.22,0.26-0.22h2.47c1.1,0,1.8-0.51,2.12-2.05c0.09-0.44,0.14-0.73,0.16-0.88h-7.32c-0.26,0-0.48,0.19-0.53,0.44
				l-0.73,3.95c-0.25,1.07,0.29,1.59,1.6,1.54h6.53c1.15,0.05,1.89-0.29,2.22-1.03c0.08-0.19,0.22-0.56,0.42-1.1
				c0.05-0.14,0.11-0.31,0.16-0.46c0.08-0.21,0.28-0.35,0.5-0.35l0.79,0c0,0-0.78,2.15-0.87,2.34c-0.51,1.17-1.6,1.73-3.29,1.69
				H104.38z M100.96,14.54l0.16-0.88c0.02-0.13,0.14-0.22,0.26-0.22h4.57l0.3-1.61c0.02-0.13,0.14-0.22,0.26-0.22h1.01l-0.34,1.83
				h5.37l0.3-1.61c0.02-0.13,0.14-0.22,0.26-0.22h0.94l-0.34,1.83h4.79l-0.16,0.88c-0.02,0.13-0.14,0.22-0.26,0.22h-4.57l-0.26,1.39
				c-0.02,0.13-0.14,0.22-0.26,0.22h-0.94l0.3-1.61h-5.37l-0.26,1.39c-0.02,0.13-0.14,0.22-0.26,0.22h-1.01l0.3-1.61H100.96z
				 M116.42,21.14c-3.33-1.02-5.72-2.44-7.18-4.26c-2.34,1.91-5.36,3.45-9.06,4.62c-0.1-0.37-0.19-0.68-0.27-0.91
				c-0.05-0.15,0.04-0.3,0.18-0.34c3.76-1.1,6.64-2.71,9.01-4.84c0.1-0.09,0.22-0.14,0.36-0.14h1.57l-0.84,0.81
				c1.73,1.9,4.15,3.2,7.26,3.88c-0.27,0.33-0.5,0.68-0.71,1.05C116.68,21.12,116.55,21.18,116.42,21.14L116.42,21.14z"/>
			<path id="Fill-13" class="st0" d="M121.69,22.46l-0.29,1.4h12.28c-0.16,0.98-0.45,1.97-0.6,2.62c-0.39,1.68-1.89,2.13-3.43,2.13
				h-4.07l0.15-0.67c0.05-0.25,0.27-0.43,0.52-0.43H130c1.15,0,1.6-0.58,1.84-1.22c0.15-0.39,0.25-0.91,0.34-1.4h-11.95l0.48-2.55
				c0.14-0.78,0.81-1.34,1.59-1.34h9.67c0.26,0,0.48-0.19,0.53-0.44l0.3-1.51h-11.54l0.14-0.73c0.02-0.13,0.13-0.32,0.26-0.32
				l12.55,0.09l-0.5,2.61c-0.14,0.77-0.81,1.33-1.59,1.33h-9.9C121.96,22.02,121.74,22.21,121.69,22.46"/>
			<path id="Fill-15" class="st0" d="M120.25,17.87c-0.08-0.3-0.22-0.72-0.25-0.76c2.26-0.64,4.17-1.19,6.36-1.84
				c0.13-0.04,0.28,0.03,0.33,0.16l0.25,0.65c-1.26,0.41-3.38,1.02-6.35,1.97C120.45,18.1,120.29,18.01,120.25,17.87"/>
			<path id="Fill-17" class="st0" d="M120.02,16.23l0.46-2.49c0.02-0.13,0.14-0.22,0.26-0.22h7.62c-0.05-0.42-0.1-0.9-0.16-1.42
				c-0.02-0.15,0.08-0.28,0.22-0.3l1.09-0.18c0,0.25,0.03,0.64,0.07,1.17c0.03,0.34,0.06,0.59,0.08,0.73H137l-0.46,2.49
				c-0.02,0.13-0.13,0.22-0.26,0.22h-0.94l0.31-1.69h-14.08l-0.27,1.46c-0.02,0.13-0.13,0.22-0.26,0.22H120.02z"/>
			<path id="Fill-19" class="st0" d="M135.31,18c-0.98-0.33-5.28-1.78-5.82-1.91l0.56-0.73c0.07-0.09,0.18-0.13,0.29-0.1
				c0.82,0.24,3.89,1.19,5.78,1.86l-0.5,0.78C135.55,17.99,135.42,18.04,135.31,18"/>
		</g>
	</g>
</g>
</svg>
