<?xml version="1.0" standalone="no"?><!DOCTYPE svg PUBLIC "-//W3C//DTD SVG 1.1//EN" "http://www.w3.org/Graphics/SVG/1.1/DTD/svg11.dtd"><svg t="1716806057327" class="icon" viewBox="0 0 1024 1024" version="1.1" xmlns="http://www.w3.org/2000/svg" p-id="13615" xmlns:xlink="http://www.w3.org/1999/xlink" width="200" height="200"><path d="M281.6 531.2c0 121.6 102.4 224 224 224s224-102.4 224-224-102.4-224-224-224c-83.2 0-153.6 44.8-192 115.2h-12.8c-25.6 0-38.4 19.2-38.4 38.4s12.8 32 25.6 38.4c-6.4 6.4-6.4 19.2-6.4 32z m224-204.8c115.2 0 204.8 89.6 204.8 204.8 0 115.2-89.6 204.8-204.8 204.8-115.2 0-204.8-89.6-204.8-204.8v-32c19.2 0 38.4-19.2 38.4-38.4 0-12.8-6.4-25.6-12.8-32 38.4-64 102.4-102.4 179.2-102.4z" fill="#2386EE" p-id="13616"></path><path d="M512 883.2c192 0 352-160 352-352 0-96-38.4-185.6-108.8-249.6 6.4-12.8 6.4-19.2 6.4-32 0-38.4-32-70.4-70.4-70.4-25.6 0-44.8 12.8-57.6 32-38.4-19.2-76.8-32-121.6-32-192 0-352 160-352 352S320 883.2 512 883.2zM512 198.4c38.4 0 76.8 6.4 115.2 19.2 0 6.4-6.4 19.2-6.4 25.6 0 38.4 32 70.4 70.4 70.4 19.2 0 38.4-6.4 51.2-19.2 64 57.6 102.4 147.2 102.4 236.8 0 185.6-147.2 332.8-332.8 332.8-185.6 0-332.8-147.2-332.8-332.8S326.4 198.4 512 198.4z" fill="#2386EE" p-id="13617"></path><path d="M505.6 531.2m-128 0a128 128 0 1 0 256 0 128 128 0 1 0-256 0Z" fill="#2386EE" p-id="13618"></path></svg>